<?xml version="1.0" encoding="UTF-8" standalone="no"?>
<!-- Created with Inkscape (http://www.inkscape.org/) -->

<svg
   xmlns:dc="http://purl.org/dc/elements/1.1/"
   xmlns:cc="http://creativecommons.org/ns#"
   xmlns:rdf="http://www.w3.org/1999/02/22-rdf-syntax-ns#"
   xmlns:svg="http://www.w3.org/2000/svg"
   xmlns="http://www.w3.org/2000/svg"
   xmlns:xlink="http://www.w3.org/1999/xlink"
   xmlns:sodipodi="http://sodipodi.sourceforge.net/DTD/sodipodi-0.dtd"
   xmlns:inkscape="http://www.inkscape.org/namespaces/inkscape"
   height="55"
   id="img"
   inkscape:version="0.48.3.1 r9886"
   sodipodi:docname="logo-wide.svg"
   sodipodi:version="0.32"
   version="1.0"
   width="150"
   inkscape:output_extension="org.inkscape.output.svg.inkscape"
   inkscape:export-filename="/tmp/logo-wide.png"
   inkscape:export-xdpi="90"
   inkscape:export-ydpi="90">
  <sodipodi:namedview
     bordercolor="#666666"
     borderopacity="1.0"
     grid_units="mm"
     height="297mm"
     id="base"
     inkscape:current-layer="layer1"
     inkscape:cx="75"
     inkscape:cy="24"
     inkscape:document-units="mm"
     inkscape:pageopacity="0.0"
     inkscape:pageshadow="2"
     inkscape:window-height="885"
     inkscape:window-width="1679"
     inkscape:window-x="119"
     inkscape:window-y="84"
     inkscape:zoom="5.26"
     pagecolor="#ffffff"
     showgrid="false"
     units="mm"
     width="210mm"
     inkscape:window-maximized="0">
    <inkscape:grid
       empspacing="5"
       empopacity="0.4"
       opacity="0.2"
       empcolor="#0000ff"
       color="#0000ff"
       spacingy="5mm"
       spacingx="5mm"
       originy="0px"
       originx="0px"
       type="xygrid"
       id="GridFromPre046Settings"
       units="mm"
       visible="true"
       enabled="true" />
  </sodipodi:namedview>
  <metadata
     id="metadata3">
    <rdf:RDF>
      <cc:Work
         rdf:about="">
        <dc:title>Blazing Sun</dc:title>
        <dc:description>contact: hermann.schwarting@knackich.de</dc:description>
        <dc:subject>
          <rdf:Bag>
            <rdf:li>flames</rdf:li>
            <rdf:li>sun</rdf:li>
            <rdf:li>fire</rdf:li>
            <rdf:li>blaze</rdf:li>
          </rdf:Bag>
        </dc:subject>
        <dc:publisher>
          <cc:Agent
             rdf:about="http://www.openclipart.org/">
            <dc:title>Hermann Schwarting</dc:title>
          </cc:Agent>
        </dc:publisher>
        <dc:creator>
          <cc:Agent>
            <dc:title>Hermann Schwarting</dc:title>
          </cc:Agent>
        </dc:creator>
        <dc:rights>
          <cc:Agent>
            <dc:title>Hermann Schwarting</dc:title>
          </cc:Agent>
        </dc:rights>
        <dc:date>2006-06-09</dc:date>
        <dc:format>image/svg+xml</dc:format>
        <dc:type
           rdf:resource="http://purl.org/dc/dcmitype/StillImage" />
        <cc:license
           rdf:resource="http://web.resource.org/cc/PublicDomain" />
        <dc:language>en</dc:language>
      </cc:Work>
      <cc:License
         rdf:about="http://web.resource.org/cc/PublicDomain">
        <cc:permits
           rdf:resource="http://web.resource.org/cc/Reproduction" />
        <cc:permits
           rdf:resource="http://web.resource.org/cc/Distribution" />
        <cc:permits
           rdf:resource="http://web.resource.org/cc/DerivativeWorks" />
      </cc:License>
    </rdf:RDF>
  </metadata>
  <defs
     id="defs">
    <linearGradient
       inkscape:collect="always"
       id="linearGradient8203">
      <stop
         style="stop-color:#000000;stop-opacity:1;"
         offset="0"
         id="stop8205" />
      <stop
         style="stop-color:#000000;stop-opacity:0;"
         offset="1"
         id="stop8207" />
    </linearGradient>
    <linearGradient
       inkscape:collect="always"
       id="linearGradient7909">
      <stop
         style="stop-color:#ff0000;stop-opacity:1;"
         offset="0"
         id="stop7911" />
      <stop
         style="stop-color:#ff0000;stop-opacity:0;"
         offset="1"
         id="stop7913" />
    </linearGradient>
    <filter
       height="1.4012291"
       y="-0.20061462"
       width="1.4040438"
       x="-0.20202188"
       id="filter4936"
       inkscape:collect="always">
      <feGaussianBlur
         id="feGaussianBlur4938"
         stdDeviation="10.755303"
         inkscape:collect="always" />
    </filter>
    <filter
       id="filter"
       height="2"
       width="2"
       x="-0.5"
       y="-0.5">
      <feGaussianBlur
         stdDeviation="5.0"
         id="feGaussianBlur7232" />
    </filter>
    <filter
       inkscape:collect="always"
       id="filter7709">
      <feGaussianBlur
         inkscape:collect="always"
         stdDeviation="2.2986186"
         id="feGaussianBlur7711" />
    </filter>
    <filter
       inkscape:collect="always"
       id="filter7903">
      <feGaussianBlur
         inkscape:collect="always"
         stdDeviation="1.2371003"
         id="feGaussianBlur7905" />
    </filter>
    <filter
       inkscape:collect="always"
       id="filter3261">
      <feGaussianBlur
         inkscape:collect="always"
         stdDeviation="0.43151485"
         id="feGaussianBlur3263" />
    </filter>
    <radialGradient
       inkscape:collect="always"
       xlink:href="#linearGradient8203"
       id="radialGradient3311"
       gradientUnits="userSpaceOnUse"
       gradientTransform="matrix(1,0,0,0.5485425,-258.91624,366.0631)"
       cx="119.25895"
       cy="923.43451"
       fx="119.25895"
       fy="923.43451"
       r="59.700958" />
    <radialGradient
       inkscape:collect="always"
       xlink:href="#linearGradient8203"
       id="radialGradient3313"
       gradientUnits="userSpaceOnUse"
       gradientTransform="matrix(1,0,0,0.5534711,-258.91624,361.51182)"
       cx="119.25895"
       cy="923.43451"
       fx="119.25895"
       fy="923.43451"
       r="59.186646" />
    <radialGradient
       inkscape:collect="always"
       xlink:href="#linearGradient7909"
       id="radialGradient3315"
       gradientUnits="userSpaceOnUse"
       gradientTransform="matrix(1,0,0,1.0715633,-258.91624,-116.76931)"
       cx="121.25895"
       cy="921.43457"
       fx="121.25895"
       fy="921.43457"
       r="119.43639" />
  </defs>
  <g
     transform="translate(0,-791.9559)"
     inkscape:label="Blazing Sun"
     inkscape:groupmode="layer"
     id="layer1">
    <g
       id="g3304"
       transform="matrix(1.1537112,0,0,1.1537112,-5.0347235,-121.89072)">
      <path
         transform="matrix(0.1845028,0,0,0.1845028,54.166111,655.29989)"
         id="path7250"
         d="M -192.55775,869.35465 L -194.35824,871.36935 M -194.35824,871.36935 L -191.60825,870.84255 M -191.60825,870.84255 C -180.92258,868.79545 -180.80471,868.77285 -177.35885,866.48355 M -181.1127,859.09795 C -178.50135,858.43485 -176.26657,857.35505 -173.7174,855.52265 M -185.72798,848.74135 C -189.05373,851.33345 -191.05777,854.48685 -191.42345,857.77435 M -191.42345,857.77435 C -191.55768,858.98115 -191.49312,859.78335 -191.13053,861.01715 M -191.13053,861.01715 L -187.97581,858.58005 M -185.24516,849.58565 C -183.7891,848.24775 -182.39785,847.49255 -179.7726,846.70445 M -179.7726,846.70445 C -181.87432,853.50135 -184.83606,862.49935 -186.93991,868.27835 M -176.71058,845.79205 C -176.11666,845.63755 -175.48346,845.47555 -175.16918,845.41535 M -175.16918,845.41535 C -172.6942,844.94115 -171.50197,845.97535 -171.77044,848.38895 M -171.77044,848.38895 C -172.2611,852.80005 -175.41143,856.58035 -179.18284,857.30285 M -175.32245,877.57865 C -174.12311,877.51175 -172.40843,877.30545 -171.03344,877.04205 M -171.03344,877.04205 C -168.28346,876.51525 -166.62408,875.42345 -164.10245,872.45605 M -157.67432,849.23175 L -161.19555,859.80315 M -169.98257,853.42245 L -170.22541,854.56865 M -170.22541,854.56865 C -168.2679,853.21615 -167.81261,852.92525 -167.38047,852.84255 M -167.38047,852.84255 C -166.98761,852.76725 -166.81896,852.97935 -166.86062,853.35385 M -166.86062,853.35385 C -166.94393,854.10285 -167.3578,855.40395 -168.70799,859.24665 M -168.70799,859.24665 C -170.05355,863.04775 -170.35181,864.00085 -170.47216,865.08285 M -170.47216,865.08285 C -170.62028,866.41445 -170.14209,867.30035 -169.35638,867.14985 M -169.35638,867.14985 C -168.60995,867.00685 -165.24493,864.40725 -161.45227,861.07415 M -161.45227,861.07415 C -163.7922,868.97545 -163.7922,868.97555 -164.43489,870.60555 M -173.43627,874.44785 L -175.32245,877.57865 M -155.42006,864.35775 L -152.26084,862.57145 M -147.99521,850.14695 C -146.54377,848.85075 -145.59392,848.26145 -144.53321,848.05825 M -144.53321,848.05825 C -143.66892,847.89275 -143.19524,848.12775 -142.59456,848.94945 M -154.07735,850.21255 L -154.32018,851.35865 M -154.32018,851.35865 C -152.06915,849.78705 -151.82418,849.65865 -151.35276,849.56835 M -151.35276,849.56835 C -150.84205,849.47055 -150.63873,849.71665 -150.70354,850.29925 M -150.70354,850.29925 C -150.76834,850.88185 -151.37875,852.91305 -152.04921,854.79275 M -152.04921,854.79275 L -155.42006,864.35775 M -137.82859,846.81455 C -140.56506,849.29375 -142.8143,853.96025 -143.27256,858.08005 M -143.27256,858.08005 C -143.55492,860.61855 -142.39973,861.98565 -140.31759,861.58675 M -140.31759,861.58675 C -139.2176,861.37595 -138.07131,860.74915 -136.15308,859.40415 M -136.15308,859.40415 C -134.0592,857.86265 -132.64705,856.57395 -131.82882,855.43975 M -133.34754,844.89725 C -131.77612,844.59615 -130.97451,846.03095 -131.25223,848.52785 M -131.25223,848.52785 C -131.44665,850.27565 -132.23734,852.54495 -133.44629,854.77215 M -133.44629,854.77215 C -134.81013,857.35485 -136.36791,858.91585 -137.86076,859.20185 M -162.63699,893.76085 L -164.84695,898.41985 M -164.84695,898.41985 C -163.68951,900.11235 -161.94492,900.67405 -159.39136,900.18485 M -159.39136,900.18485 C -153.38067,899.03335 -146.90922,892.70265 -146.32136,887.41775 M -147.29638,873.02405 C -145.64639,872.70795 -145.14042,873.34415 -145.00452,875.92465 M -145.00452,875.92465 L -142.19412,873.47205 M -145.31097,870.72955 C -149.35739,871.50475 -154.48148,877.12925 -154.93974,881.24915 M -154.93974,881.24915 C -155.14803,883.12175 -154.47579,884.33695 -152.40552,885.77305 M -152.40552,885.77305 C -149.98407,887.50845 -149.4019,888.49655 -149.61482,890.41085 M -149.61482,890.41085 C -149.97587,893.65675 -153.24169,897.09255 -156.65952,897.74735 M -134.46064,877.89605 C -133.51778,877.71535 -133.09502,878.40825 -133.10226,880.20155 M -133.10226,880.20155 L -130.66631,878.35025 M -135.17454,877.05535 C -138.33852,879.57565 -139.03652,880.32025 -140.09058,882.19205 M -140.09058,882.19205 C -141.44054,884.64995 -142.65898,888.34515 -142.94597,890.92525 M -142.94597,890.92525 C -143.21444,893.33885 -142.31111,894.55055 -140.50397,894.20435 M -140.50397,894.20435 C -138.61828,893.84305 -135.21169,891.56135 -131.32195,888.04675 M -124.11401,876.76915 C -126.85048,879.24825 -129.09972,883.91485 -129.55798,888.03465 M -129.55798,888.03465 C -129.84034,890.57305 -128.68515,891.94015 -126.60301,891.54125 M -126.60301,891.54125 C -125.50302,891.33055 -124.35673,890.70365 -122.4385,889.35875 M -122.4385,889.35875 C -120.34463,887.81725 -118.93247,886.52855 -118.11424,885.39435 M -119.63296,874.85175 C -118.06155,874.55075 -117.25993,875.98555 -117.53766,878.48235 M -117.53766,878.48235 C -117.73207,880.23015 -118.52276,882.49945 -119.73171,884.72675 M -119.73171,884.72675 C -121.09555,887.30945 -122.65334,888.87045 -124.14618,889.15645 M -117.77061,897.99475 L -119.0973,899.55215 M -119.0973,899.55215 C -117.96265,899.37545 -113.61121,898.62335 -112.43264,898.39755 M -112.43264,898.39755 C -112.11835,898.33735 -111.56836,898.23195 -110.58159,898.00225 M -110.58159,898.00225 L -109.24801,896.72855 M -110.74858,888.09665 C -109.98138,888.11265 -109.55387,888.07145 -108.88601,887.94355 M -108.88601,887.94355 C -107.15745,887.61235 -106.17294,887.05725 -104.45339,885.42455 M -112.6528,875.14365 L -113.00886,876.27075 M -113.00886,876.27075 C -112.47501,875.96485 -111.98043,875.66645 -111.81403,875.55315 M -111.81403,875.55315 C -110.61458,874.79395 -110.36961,874.66555 -110.05532,874.60535 M -110.05532,874.60535 C -109.58389,874.51495 -109.35518,874.87845 -109.4385,875.62745 M -109.4385,875.62745 C -109.60514,877.12565 -113.16577,888.39685 -116.34707,897.64055 M -107.06309,876.39425 C -103.52466,873.27275 -102.2674,872.33955 -101.24598,872.14385 M -101.24598,872.14385 C -100.46027,871.99335 -100.05139,872.81095 -100.20414,874.18425 M -100.20414,874.18425 C -100.41243,876.05685 -101.22165,878.49265 -102.45837,880.96955 M -102.45837,880.96955 C -103.79218,883.62805 -105.26676,885.13235 -106.87746,885.44095 M -93.397865,878.82655 C -91.500415,877.32265 -90.224635,876.22305 -87.703115,873.94795 M -92.657135,871.47585 C -94.362925,873.67615 -96.207805,878.50955 -96.582735,881.88035 M -96.582735,881.88035 C -96.855835,884.33555 -95.809245,885.64195 -93.805685,885.25815 M -93.805685,885.25815 C -91.487835,884.81415 -88.425565,882.51695 -84.956325,878.63485 M -88.069615,868.60145 C -87.401765,868.47345 -87.048315,869.09815 -87.159405,870.09685 M -87.159405,870.09685 C -87.390845,872.17755 -88.590435,873.62915 -93.113365,877.30585"
         style="fill:url(#radialGradient3311);fill-opacity:1;stroke:#ffffff;stroke-width:10;stroke-opacity:1;filter:url(#filter)" />
      <path
         transform="matrix(0.1845028,0,0,0.1845028,54.166111,655.29989)"
         id="path7252"
         d="M -178.64502,868.85303 L -178.52479,868.46353 M -178.52479,868.46353 C -180.75256,869.13463 -181.70005,869.35693 -185.16181,870.06083 M -185.16181,870.06083 C -184.98378,869.49723 -184.80575,868.93363 -184.63234,868.41173 M -184.63234,868.41173 C -184.39651,867.67423 -184.16068,866.93663 -183.84853,865.85863 M -183.84853,865.85863 C -183.08786,863.51363 -183.0208,863.25643 -182.39887,861.46743 M -175.00357,857.89213 C -171.99449,855.72733 -169.90261,852.47563 -169.56008,849.39623 M -169.56008,849.39623 C -169.24532,846.56643 -171.29257,845.61463 -175.8104,846.48013 M -175.8104,846.48013 C -176.20326,846.55543 -176.6354,846.63823 -177.5436,846.85293 M -177.5436,846.85293 L -177.19216,845.76743 M -177.19216,845.76743 L -179.98168,847.68653 M -179.98168,847.68653 C -183.12228,848.61403 -184.95494,849.53533 -187.01416,851.11083 M -189.26199,860.94953 C -189.57141,859.58333 -189.6152,858.94013 -189.50411,857.94133 M -189.50411,857.94133 C -189.25878,855.73583 -188.11915,853.44043 -186.53134,851.95513 M -188.22609,870.64783 L -193.84393,871.72413 M -180.46901,859.67233 C -180.90115,859.75513 -181.21081,859.77373 -181.82549,859.76923 M -181.82549,859.76923 L -177.99675,848.16153 M -165.38862,874.82553 C -162.82308,871.80893 -162.61502,871.32103 -160.48552,864.27453 M -160.48552,864.27453 C -158.36529,857.31123 -157.27169,854.04723 -155.42219,849.17213 M -155.42219,849.17213 C -155.9653,849.56123 -156.42521,849.89373 -156.59161,850.00703 M -156.59161,850.00703 L -158.0453,850.97793 M -158.0453,850.97793 C -158.25562,851.14043 -158.58379,851.32543 -158.9605,851.60123 M -162.48173,862.17263 C -166.69726,865.50533 -166.90758,865.66773 -167.57542,865.79573 M -167.57542,865.79573 C -168.08614,865.89353 -168.3749,865.37873 -168.29158,864.62963 M -168.29158,864.62963 C -168.18975,863.71413 -167.62325,861.73213 -166.54819,858.63453 M -166.54819,858.63453 C -165.1078,854.32653 -164.29859,851.89083 -164.25693,851.51633 M -164.25693,851.51633 C -164.22453,851.22503 -164.39781,851.05453 -164.63352,851.09973 M -164.63352,851.09973 C -165.06566,851.18253 -167.73732,853.07903 -171.26874,855.79193 M -165.72106,872.97503 C -166.5857,875.21773 -167.93079,876.24923 -170.48434,876.73843 M -170.48434,876.73843 C -171.62362,876.95673 -172.4694,876.95583 -174.72244,876.81733 M -153.54701,864.94093 L -149.28138,852.51643 M -143.88074,851.31893 L -142.26243,847.13983 M -142.26243,847.13983 C -142.98109,847.03313 -143.28611,847.01013 -143.67897,847.08533 M -143.67897,847.08533 C -144.38611,847.22083 -145.25277,847.75343 -146.40142,848.74723 M -146.40142,848.74723 L -148.91831,850.98073 M -148.91831,850.98073 C -148.842,850.64023 -148.74028,850.41713 -148.7264,850.29233 M -148.7264,850.29233 C -148.25936,848.85883 -148.1923,848.60163 -148.16916,848.39353 M -148.16916,848.39353 C -148.14138,848.14383 -148.35395,847.98093 -148.62895,848.03363 M -148.62895,848.03363 C -149.13967,848.13143 -152.79584,850.58323 -155.36352,852.58203 M -132.37331,844.91943 C -133.94474,845.22053 -136.59325,846.90903 -139.11477,849.18403 M -133.11499,857.80923 C -131.29361,855.26103 -129.58285,850.94203 -129.26346,848.07063 M -129.26346,848.07063 C -129.01351,845.82343 -130.29118,844.52053 -132.37331,844.91943 M -139.14693,861.57133 C -140.75764,861.87993 -141.6078,860.53583 -141.34396,858.16383 M -141.34396,858.16383 C -140.80702,853.33663 -137.38371,847.79353 -134.63372,847.26673 M -147.60754,889.78723 C -147.41775,888.08103 -147.94913,887.32753 -150.58778,885.47083 M -150.58778,885.47083 C -153.19179,883.64823 -153.58452,883.03113 -153.38548,881.24173 M -153.38548,881.24173 C -153.08461,878.53673 -150.9004,875.83763 -148.58255,875.39353 M -143.48029,875.84153 C -143.46142,873.59793 -144.51502,872.70013 -146.59715,873.09903 M -157.9457,900.11683 C -159.63499,900.44043 -161.2756,899.98093 -162.19745,898.93573 M -162.19745,898.93573 C -162.91597,898.13663 -163.13305,897.32293 -163.24367,895.55213 M -163.24367,895.55213 L -163.92316,896.13033 M -132.38143,889.06953 C -135.661,891.93783 -137.87275,893.50193 -139.12988,893.74273 M -139.12988,893.74273 C -140.54417,894.01363 -141.23956,893.00653 -141.01737,891.00903 M -141.01737,891.00903 C -140.79519,889.01153 -140.02752,886.25793 -139.06354,884.15903 M -139.06354,884.15903 C -138.0325,881.80303 -136.88609,880.48373 -135.74681,880.26553 M -131.95249,880.71973 C -131.89006,880.50413 -131.86691,880.29603 -131.86229,880.25443 M -131.86229,880.25443 C -131.66325,878.46503 -132.40255,877.50703 -133.77755,877.77043 M -133.77755,877.77043 C -134.48469,877.90583 -134.93534,878.15513 -136.46072,879.42483 M -132.60812,890.41623 L -132.38143,889.06953 M -118.65874,874.87403 C -120.23016,875.17503 -122.87868,876.86353 -125.40019,879.13863 M -119.40042,887.76383 C -117.57905,885.21563 -115.86827,880.89653 -115.54888,878.02513 M -115.54888,878.02513 C -115.29893,875.77803 -116.57661,874.47513 -118.65874,874.87403 M -125.43236,891.52593 C -127.04307,891.83453 -127.89323,890.49043 -127.62938,888.11843 M -127.62938,888.11843 C -127.09244,883.29113 -123.66913,877.74813 -120.91914,877.22123 M -110.53419,899.09803 L -114.9064,899.69123 M -114.9064,899.69123 L -112.03475,890.46613 M -105.73956,887.79403 C -103.55547,885.78723 -102.72573,884.89513 -102.1317,884.04823 M -102.1317,884.04823 C -100.52063,881.66253 -98.768205,876.96893 -98.467325,874.26403 M -98.467325,874.26403 C -98.245145,872.26663 -98.922025,871.09293 -100.21845,871.34133 M -100.21845,871.34133 C -101.1613,871.52193 -102.56645,872.40203 -104.31602,873.95903 M -104.31602,873.95903 L -107.81054,877.03143 M -107.81054,877.03143 C -107.64177,876.55113 -107.51228,876.07833 -107.40594,875.81353 M -107.40594,875.81353 C -106.87647,874.16443 -106.58283,873.25293 -106.56432,873.08653 M -106.56432,873.08653 C -106.53655,872.83683 -106.77914,872.59823 -107.05414,872.65083 M -107.05414,872.65083 C -107.447,872.72613 -110.82817,875.12513 -113.93898,877.51313 M -117.63325,900.01003 L -119.05679,900.36423 M -111.04751,887.46683 C -110.18738,884.57333 -109.42208,882.18673 -108.83019,880.32203 M -108.83019,880.32203 C -108.76776,880.10643 -108.58973,879.54293 -108.34927,878.76373 M -108.16364,887.81043 C -109.14578,887.99853 -110.16946,887.86883 -111.04751,887.46683 M -86.108275,879.79753 C -89.355565,883.06693 -91.370895,884.59333 -92.863735,884.87933 M -92.863735,884.87933 C -93.845875,885.06743 -94.592175,884.51813 -94.746825,883.48883 M -94.746825,883.48883 C -94.829915,882.85303 -94.818275,882.40283 -94.684045,881.19603 M -88.989295,876.31743 C -86.678095,874.20483 -85.700345,872.67353 -85.492045,870.80083 M -85.492045,870.80083 C -85.330035,869.34433 -86.097115,868.63603 -87.472105,868.89943 M -87.472105,868.89943 C -88.336395,869.06503 -88.988105,869.39353 -89.951845,870.10763 M -89.951845,870.10763 C -91.546535,871.30913 -93.007225,872.68863 -93.943315,873.84533 M -86.242505,881.00433 L -86.108275,879.79753 M -94.399545,879.67533 C -93.236405,875.09463 -91.045085,871.29453 -89.355795,870.97093"
         style="fill:url(#radialGradient3313);fill-opacity:1;stroke:#ff0000;stroke-width:10;stroke-opacity:0.87030717;filter:url(#filter7709)" />
      <path
         transform="matrix(0.1845028,0,0,0.1845028,54.166111,655.29989)"
         d="M -145.18558,743.8725 C -134.98366,756.5056 -154.63825,759.63786 -147.16269,774.71563 C -143.11055,782.88863 -151.90365,788.57501 -156.04454,788.5251 C -160.49226,788.47517 -167.2153,786.04926 -161.88467,774.71564 C -168.57487,783.84362 -168.26861,801.52311 -154.46285,806.13671 C -158.6619,807.02412 -162.71952,808.29448 -166.59934,809.90844 C -166.65902,809.74722 -166.69097,809.58367 -166.75143,809.42177 C -170.14874,800.32358 -183.44834,797.73443 -200.14962,805.52835 C -189.78091,801.96412 -182.43734,808.95562 -180.31754,817.51277 C -180.31524,817.52209 -180.31984,817.53388 -180.31754,817.54318 C -186.34197,821.86847 -191.65597,827.14713 -196.01286,833.14725 C -199.43854,830.13697 -204.00768,825.70797 -206.75017,821.46702 C -214.686,809.19517 -220.64436,806.64128 -230.26275,806.4713 C -229.20373,806.6549 -220.73137,808.31272 -220.92463,813.74102 C -221.04167,817.02874 -227.08128,820.1488 -232.33111,820.09823 C -251.74556,819.91122 -255.74717,800.68658 -255.84368,800.20534 C -255.82584,801.123 -255.27427,815.94293 -239.47918,824.59999 C -225.40907,832.32005 -214.85638,835.84849 -214.96284,839.23071 C -215.07478,842.78752 -218.66703,855.40716 -236.83287,842.05952 C -224.66132,855.01511 -213.35061,850.59783 -203.52594,846.31794 C -206.30371,852.75326 -208.12264,859.70176 -208.81854,866.97127 C -218.54859,870.01731 -220.33422,877.02953 -224.54428,888.35463 C -219.69634,880.47846 -213.65904,877.50418 -208.97063,878.31693 C -208.57498,884.17433 -207.45491,889.8315 -205.68556,895.19853 C -206.93847,894.73344 -208.21263,894.25674 -209.45731,893.79932 C -213.6518,892.25789 -217.0618,895.07549 -220.40753,898.90944 C -216.48762,895.20998 -210.98749,896.58165 -210.09607,901.79908 C -209.12036,907.50984 -215.71122,906.60174 -223.35801,904.71913 C -230.94752,902.85065 -234.18758,908.05566 -237.89748,915.12186 C -232.8987,909.42101 -228.48842,907.198 -225.66972,912.08012 C -222.94237,916.80405 -228.30331,921.60071 -236.71119,921.60071 C -242.76195,921.60071 -245.32903,927.12052 -246.65766,938.90822 C -242.03623,926.00662 -232.25014,936.16892 -225.0918,928.53592 C -216.60891,919.49046 -207.6046,918.21651 -204.71221,922.02661 C -201.81982,925.83662 -201.14632,931.86882 -212.28612,933.46352 C -204.07559,934.32632 -194.25982,928.27202 -190.99401,920.20154 C -187.74004,923.75012 -184.12231,926.97702 -180.19587,929.78302 C -188.9618,939.46252 -181.39413,949.31992 -171.92237,960.41332 C -178.13579,948.90422 -175.36422,939.41402 -169.91482,935.83602 C -162.72842,939.28022 -154.85273,941.55082 -146.55435,942.31492 C -148.75364,946.33772 -151.11002,952.22542 -152.69864,960.62612 C -153.97172,967.35822 -151.24137,971.69732 -145.18557,977.87282 C -145.48316,977.20942 -150.15123,966.54032 -144.8814,963.69832 C -140.42773,961.29642 -137.10362,969.66622 -135.69538,975.10482 C -134.2425,980.71582 -132.44782,989.93482 -140.92715,997.33982 C -139.88053,996.82812 -128.68745,990.95202 -128.45606,973.43192 C -128.35509,965.90262 -134.23595,955.73742 -127.08728,952.83932 C -120.177,950.03802 -116.77688,957.01072 -120.39549,971.48512 C -114.68521,959.35082 -112.85334,952.50502 -125.47517,941.03742 C -122.87997,940.47452 -120.34838,939.75442 -117.87085,938.90822 C -111.72437,945.55002 -100.5117,946.21882 -88.213965,942.37572 C -96.455275,942.62552 -102.67408,938.75052 -105.97768,933.52432 C -98.776345,929.40612 -92.394085,924.04552 -87.118945,917.70733 C -84.843325,921.19421 -83.024445,926.66392 -84.168475,934.80182 C -85.599625,944.98232 -75.407145,945.69952 -69.020655,944.96122 C -76.999785,944.07802 -80.430485,935.43382 -73.248665,932.55102 C -66.289555,929.75752 -72.136545,948.50022 -51.530715,947.94212 C -62.258665,944.95102 -64.250425,940.99632 -61.446745,936.14022 C -58.797195,931.55102 -53.286985,935.54682 -48.945255,939.12112 C -42.740885,944.22872 -39.964765,942.55342 -27.440215,941.91952 C -46.629135,938.27742 -41.586025,925.33952 -51.895725,923.88202 C -62.487805,922.38461 -68.658635,916.44969 -66.526435,907.94338 C -64.492865,899.83056 -55.285725,899.53268 -48.428155,905.875 C -54.418145,899.58501 -62.623225,891.95236 -74.252425,893.98183 C -72.881345,889.54736 -71.934495,884.93819 -71.484465,880.17238 C -61.320205,879.36471 -53.676025,870.90985 -47.059375,864.23373 C -56.323645,870.3505 -65.243615,871.90938 -71.332375,869.10049 C -71.777175,862.22777 -73.215605,855.63078 -75.529955,849.45092 C -70.501885,846.26795 -62.699535,842.34251 -55.728305,843.21538 C -44.376455,844.63675 -39.226615,835.06277 -35.287875,828.52383 C -40.457835,833.96996 -50.151665,837.89133 -51.044045,829.58843 C -51.888365,821.73284 -33.905325,803.90708 -19.835905,813.40644 C -29.242225,806.40378 -40.659965,804.67739 -51.165705,815.50522 C -57.851445,822.39594 -67.778465,827.22131 -72.549075,822.40995 C -77.174035,817.74545 -75.778305,807.11614 -62.055105,808.29633 C -72.720325,806.27229 -84.895255,809.95795 -87.088525,829.55802 C -90.214125,825.79779 -93.736165,822.39144 -97.582505,819.36822 C -90.167725,809.68359 -99.556295,801.61776 -108.53273,786.97381 C -103.0284,800.0203 -105.66954,808.32458 -111.78738,810.72971 C -111.79588,810.72587 -111.80932,810.73354 -111.81781,810.72971 C -118.14928,807.86873 -124.9626,805.90268 -132.13655,805.0721 C -129.85578,802.96492 -126.10132,800.32429 -120.76048,798.95823 C -113.30985,797.05252 -115.0685,787.92998 -118.32711,782.98915 C -119.00532,787.86594 -118.32317,795.50652 -126.29643,793.42228 C -134.2697,791.33802 -127.00486,782.64254 -123.22429,779.917 C -119.36481,777.13458 -123.17995,768.32245 -128.48649,764.46502 C -119.33282,772.36186 -125.87554,779.73844 -134.26576,778.39614 C -142.4692,777.08371 -138.97186,767.53681 -134.56995,762.12289 C -129.92572,756.41092 -137.70624,750.78268 -145.18558,743.8725 z M -19.714225,813.49768 C -19.633315,813.55337 -19.551535,813.62268 -19.470895,813.6802 C -19.552935,813.61759 -19.631855,813.55949 -19.714225,813.49768 z"
         id="path5179"
         style="fill:#ff2a2a;fill-opacity:1;fill-rule:nonzero;stroke:url(#radialGradient3315);stroke-width:2.5;stroke-linecap:round;stroke-linejoin:round;marker:none;marker-start:none;marker-mid:none;marker-end:none;stroke-miterlimit:4;stroke-dasharray:none;stroke-dashoffset:0;stroke-opacity:0.87030717;visibility:visible;display:inline;overflow:visible;filter:url(#filter7903)" />
      <path
         transform="matrix(-9.3612801e-2,0.1532577,-0.1532577,-9.3612801e-2,181.44555,883.88746)"
         id="path3160"
         d="M 114.9375,863.71875 C 81.333466,868.54904 57.897026,904.71614 63.59375,937.5625 C 64.53506,954.56481 79.511083,967.0057 94.46875,973.0625 C 113.05682,983.43899 137.22033,982.24823 154.34375,969.625 C 170.02302,960.32634 180.77192,942.4225 179,923.9375 C 179.74356,902.89822 169.18595,880.26413 148.96875,871.65625 C 138.53945,866.14137 126.70856,863.36997 114.9375,863.71875 z"
         style="fill:#ffff00;fill-opacity:1;fill-rule:evenodd;stroke:none;stroke-width:2.5;stroke-linecap:round;stroke-linejoin:round;marker:none;marker-start:none;marker-mid:none;marker-end:none;stroke-miterlimit:4;stroke-dasharray:none;stroke-dashoffset:0;stroke-opacity:1;visibility:visible;display:inline;overflow:visible;filter:url(#filter4936)" />
      <path
         transform="matrix(0.1845028,0,0,0.1845028,54.166111,655.29989)"
         id="path7242"
         d="M -176.37756,850.50199 C -179.81439,853.27849 -183.89564,853.34519 -187.17322,856.64609 C -191.05164,859.79529 -193.29074,865.44539 -191.69187,869.09039 C -189.98942,867.56769 -186.92427,866.40429 -188.20671,864.22279 C -188.57147,860.46989 -185.23444,855.86489 -181.42536,854.98459 C -179.85168,854.95949 -182.52069,859.41809 -182.7021,861.22119 C -184.22646,865.92519 -185.80704,870.62649 -187.48829,875.31699 C -189.92393,876.15449 -192.90122,875.23829 -194.66023,878.27179 C -196.91026,880.60949 -191.27626,878.12579 -190.01448,878.31459 C -185.86498,877.30589 -181.10493,877.26419 -177.333,873.94419 C -176.6161,871.76469 -180.94669,874.62869 -182.35377,874.30889 C -184.98656,875.32459 -182.11977,871.15189 -182.11517,869.66299 C -181.93424,867.04979 -180.19094,866.42119 -178.18276,865.77049 C -173.35708,863.93189 -167.8668,858.58799 -168.21426,853.26539 C -168.81599,849.89949 -173.10608,850.71719 -175.99498,851.38329 C -176.00095,850.70989 -174.82147,849.07469 -176.37756,850.50199 z M -175.51327,853.26369 C -172.75309,852.26869 -171.76555,855.23239 -172.8963,857.82149 C -173.76436,861.17749 -177.25436,864.51109 -180.3535,864.37279 C -179.16196,860.77179 -177.97042,857.17079 -176.77887,853.56979 C -176.35689,853.46619 -175.93488,853.36269 -175.51327,853.26369 z M -154.58764,853.90039 C -156.40888,855.31569 -158.94847,856.09979 -159.05025,858.73429 C -160.16708,861.53389 -160.6894,864.70749 -162.16787,867.27969 C -163.6342,868.10359 -165.35306,870.51979 -166.83611,870.31049 C -166.93945,867.16969 -164.94817,863.64149 -164.10853,860.32709 C -163.9686,859.08209 -161.69693,855.49989 -163.80967,855.79429 C -166.15735,857.22249 -168.68997,859.00939 -170.68529,860.89789 C -172.00379,864.15189 -169.39742,861.35429 -167.87072,860.70869 C -166.99703,860.93109 -168.49517,863.32099 -168.53027,864.20779 C -169.29505,867.57939 -172.16346,871.72109 -170.82484,874.57469 C -169.28888,876.06459 -166.66507,872.66999 -164.86361,871.58499 C -162.0822,868.62899 -162.55545,870.34589 -163.47864,873.07189 C -164.50429,875.74679 -164.88334,880.12479 -168.21001,881.04199 C -170.26847,881.91929 -172.41333,881.14759 -174.08652,881.75419 C -176.22015,884.56299 -176.8126,886.36009 -173.24239,885.17809 C -169.73381,885.16959 -166.0581,882.89629 -163.56955,879.39619 C -159.83143,874.94179 -159.55188,869.32839 -157.60987,864.32889 C -156.40428,860.62479 -155.16939,856.91939 -153.67403,853.24809 C -153.97857,853.46549 -154.2831,853.68289 -154.58764,853.90039 z M -147.8499,852.73689 C -150.20158,854.11859 -152.73295,855.73459 -154.7959,857.66299 C -156.11546,861.00549 -153.38333,858.04859 -151.88926,857.45619 C -150.59566,857.36419 -152.36167,859.99499 -152.22743,860.76639 C -153.59103,864.70459 -154.98749,868.64009 -156.39439,872.57379 C -154.41633,871.30189 -151.63455,870.75579 -151.51,867.91949 C -150.12525,864.47459 -149.39504,860.65829 -147.62143,857.43399 C -145.95617,855.77139 -143.58366,855.21489 -142.81374,857.14939 C -142.61534,855.34299 -139.49438,851.49739 -142.02206,851.65219 C -143.92846,851.64649 -145.65057,853.57749 -147.22382,854.93969 C -146.82185,853.95219 -146.38967,852.21939 -147.8499,852.73689 z M -131.70598,849.64409 C -137.16219,851.55649 -142.30281,857.26139 -143.54052,863.14309 C -144.63924,866.16959 -144.0841,870.21939 -140.66569,869.43329 C -136.00002,867.83969 -131.1028,863.58109 -129.40939,858.39309 C -128.08472,855.31879 -126.60387,850.41189 -129.83563,849.57209 C -130.40646,849.42599 -131.04282,849.42159 -131.70598,849.64409 z M -133.70141,852.73089 C -130.91302,852.66499 -131.98667,857.08349 -132.79958,859.27959 C -133.93,861.93459 -135.79517,866.27189 -138.86701,866.22509 C -141.14664,864.88629 -139.58439,860.59009 -138.38716,857.86039 C -137.40984,855.94349 -135.79952,853.24329 -133.70141,852.73089 z M -145.98567,877.83439 C -150.68306,879.27239 -155.7071,884.86439 -155.67522,889.87249 C -155.35225,893.98389 -148.91033,893.78539 -150.56405,899.01159 C -152.29005,904.66799 -160.54696,907.14073 -161.71799,902.07109 C -161.28878,899.56209 -163.07403,899.85349 -163.90812,902.34399 C -164.56546,904.02159 -166.43987,906.23853 -164.76446,907.04573 C -160.97718,910.07963 -154.04817,906.57793 -150.00492,902.08629 C -147.09601,899.06249 -144.50011,893.35539 -147.73196,891.37349 C -149.50477,889.72499 -153.29838,888.68699 -151.68815,884.81319 C -151.07216,882.38499 -147.32546,879.46999 -146.02963,881.47009 C -145.84161,883.66469 -145.63392,884.69119 -143.41979,882.11849 C -140.85811,880.68469 -142.53414,877.49679 -144.46193,877.63789 C -144.95149,877.60269 -145.46136,877.65659 -145.98567,877.83439 z M -133.32199,882.53569 C -137.08761,884.77419 -140.94891,888.29439 -142.17534,892.72719 C -143.24263,895.81929 -145.04669,900.74959 -142.15708,902.01469 C -138.46066,902.32239 -134.6345,898.28549 -131.46296,895.79769 C -129.8944,892.33509 -132.0269,893.87019 -133.85683,895.71539 C -135.47116,897.01219 -138.8508,899.86599 -139.60353,897.42089 C -139.7106,893.94679 -138.4885,889.76039 -136.04513,886.49369 C -134.6582,884.81429 -133.39822,886.24919 -133.81213,887.75229 C -133.5983,888.55549 -129.9233,886.13859 -130.45365,884.56339 C -130.41764,882.91059 -131.65262,881.89539 -133.32199,882.53569 z M -117.97606,879.59579 C -123.74602,881.58609 -128.97745,887.75409 -130.02378,893.93109 C -131.03409,896.96899 -129.76445,900.41369 -126.50246,899.27019 C -121.92725,897.44199 -117.20794,893.24179 -115.58905,888.11119 C -114.25057,885.00289 -112.90522,879.92549 -116.45954,879.46429 C -116.92408,879.38159 -117.45265,879.42399 -117.97606,879.59579 z M -106.129,877.32619 C -108.57673,878.79229 -111.16647,880.58879 -113.31516,882.52109 C -114.96839,885.79519 -112.15638,883.22309 -110.61075,882.51199 C -109.39603,882.47759 -110.81328,884.93979 -110.85684,885.80469 C -112.7071,892.10939 -114.7476,898.39539 -116.92605,904.72199 C -118.79634,904.73929 -121.89807,908.90293 -118.30164,907.20343 C -115.68782,906.51463 -112.84977,906.76963 -110.36028,905.37343 C -106.6314,902.61559 -111.13807,904.07519 -112.99698,904.21389 C -113.65881,902.99509 -111.56908,899.25729 -111.20283,897.09729 C -110.98267,895.08829 -108.71511,896.24439 -107.43011,895.23459 C -103.30298,892.80179 -99.641745,888.58499 -98.329935,883.93239 C -97.371355,881.25019 -95.839885,876.66969 -98.674485,875.92989 C -101.41655,876.09229 -104.01777,879.48399 -106.07364,880.87919 C -105.88454,879.76749 -104.23114,877.02269 -106.129,877.32619 z M -87.100035,873.68069 C -91.780005,875.72449 -95.407115,880.94299 -96.562125,885.83429 C -97.608265,888.78179 -98.089505,893.48539 -94.552225,893.14929 C -90.930085,892.50619 -87.398025,889.06609 -84.863515,885.97959 C -83.735375,882.12689 -86.395175,885.83939 -87.910095,887.01459 C -89.504465,888.56839 -92.887195,890.96229 -93.386955,888.34429 C -94.178985,885.97389 -90.999995,884.82269 -89.504575,883.14589 C -86.802275,881.04249 -83.157685,877.38569 -84.368645,874.23919 C -84.841125,873.37789 -86.032055,873.30459 -87.100035,873.68069 z M -88.582705,876.47839 C -86.955295,876.55289 -88.289985,879.72319 -89.440965,880.68369 C -90.346055,881.58279 -93.271425,884.79479 -92.441865,882.64749 C -91.599825,880.55009 -90.691775,877.71399 -88.582705,876.47839 z M -119.97149,882.68259 C -117.33485,882.56659 -118.20728,886.72269 -118.94169,888.81719 C -120.04703,891.57639 -121.95123,896.19549 -125.16779,896.18269 C -127.4701,894.76369 -125.84934,890.50889 -124.68793,887.81799 C -123.62331,885.84999 -122.13879,883.23549 -119.97149,882.68259 z M -101.74247,880.01769 C -99.956905,880.05579 -101.34193,883.37649 -101.63677,884.73829 C -102.72015,887.79679 -104.64787,892.73549 -108.20956,892.52029 C -110.8652,892.91129 -108.37071,889.37649 -108.25736,887.75859 C -107.6485,885.58049 -107.13191,883.37039 -104.95816,882.19279 C -103.92528,881.37119 -102.86866,880.34009 -101.74247,880.01769 z"
         style="font-size:40px;font-style:normal;font-weight:normal;line-height:80.00000119%;opacity:0.9;fill:#c83737;fill-opacity:1;stroke:#890000;stroke-width:1.41732287;stroke-linecap:butt;stroke-linejoin:round;stroke-miterlimit:4;stroke-dasharray:none;stroke-opacity:1;filter:url(#filter3261);font-family:Bitstream Vera Sans" />
    </g>
    <path
       style="font-size:40px;font-style:normal;font-weight:normal;line-height:80.00000119%;opacity:0.9;fill:#c83737;fill-opacity:1;stroke:#890000;stroke-width:1.41732287;stroke-linecap:butt;stroke-linejoin:round;stroke-miterlimit:4;stroke-dasharray:none;stroke-opacity:1;filter:url(#filter3261);font-family:Bitstream Vera Sans"
       d="M -176.37756,850.50199 C -179.81439,853.27849 -183.89564,853.34519 -187.17322,856.64609 C -191.05164,859.79529 -193.29074,865.44539 -191.69187,869.09039 C -189.98942,867.56769 -186.92427,866.40429 -188.20671,864.22279 C -188.57147,860.46989 -185.23444,855.86489 -181.42536,854.98459 C -179.85168,854.95949 -182.52069,859.41809 -182.7021,861.22119 C -184.22646,865.92519 -185.80704,870.62649 -187.48829,875.31699 C -189.92393,876.15449 -192.90122,875.23829 -194.66023,878.27179 C -196.91026,880.60949 -191.27626,878.12579 -190.01448,878.31459 C -185.86498,877.30589 -181.10493,877.26419 -177.333,873.94419 C -176.6161,871.76469 -180.94669,874.62869 -182.35377,874.30889 C -184.98656,875.32459 -182.11977,871.15189 -182.11517,869.66299 C -181.93424,867.04979 -180.19094,866.42119 -178.18276,865.77049 C -173.35708,863.93189 -167.8668,858.58799 -168.21426,853.26539 C -168.81599,849.89949 -173.10608,850.71719 -175.99498,851.38329 C -176.00095,850.70989 -174.82147,849.07469 -176.37756,850.50199 z M -175.51327,853.26369 C -172.75309,852.26869 -171.76555,855.23239 -172.8963,857.82149 C -173.76436,861.17749 -177.25436,864.51109 -180.3535,864.37279 C -179.16196,860.77179 -177.97042,857.17079 -176.77887,853.56979 C -176.35689,853.46619 -175.93488,853.36269 -175.51327,853.26369 z M -154.58764,853.90039 C -156.40888,855.31569 -158.94847,856.09979 -159.05025,858.73429 C -160.16708,861.53389 -160.6894,864.70749 -162.16787,867.27969 C -163.6342,868.10359 -165.35306,870.51979 -166.83611,870.31049 C -166.93945,867.16969 -164.94817,863.64149 -164.10853,860.32709 C -163.9686,859.08209 -161.69693,855.49989 -163.80967,855.79429 C -166.15735,857.22249 -168.68997,859.00939 -170.68529,860.89789 C -172.00379,864.15189 -169.39742,861.35429 -167.87072,860.70869 C -166.99703,860.93109 -168.49517,863.32099 -168.53027,864.20779 C -169.29505,867.57939 -172.16346,871.72109 -170.82484,874.57469 C -169.28888,876.06459 -166.66507,872.66999 -164.86361,871.58499 C -162.0822,868.62899 -162.55545,870.34589 -163.47864,873.07189 C -164.50429,875.74679 -164.88334,880.12479 -168.21001,881.04199 C -170.26847,881.91929 -172.41333,881.14759 -174.08652,881.75419 C -176.22015,884.56299 -176.8126,886.36009 -173.24239,885.17809 C -169.73381,885.16959 -166.0581,882.89629 -163.56955,879.39619 C -159.83143,874.94179 -159.55188,869.32839 -157.60987,864.32889 C -156.40428,860.62479 -155.16939,856.91939 -153.67403,853.24809 C -153.97857,853.46549 -154.2831,853.68289 -154.58764,853.90039 z M -147.8499,852.73689 C -150.20158,854.11859 -152.73295,855.73459 -154.7959,857.66299 C -156.11546,861.00549 -153.38333,858.04859 -151.88926,857.45619 C -150.59566,857.36419 -152.36167,859.99499 -152.22743,860.76639 C -153.59103,864.70459 -154.98749,868.64009 -156.39439,872.57379 C -154.41633,871.30189 -151.63455,870.75579 -151.51,867.91949 C -150.12525,864.47459 -149.39504,860.65829 -147.62143,857.43399 C -145.95617,855.77139 -143.58366,855.21489 -142.81374,857.14939 C -142.61534,855.34299 -139.49438,851.49739 -142.02206,851.65219 C -143.92846,851.64649 -145.65057,853.57749 -147.22382,854.93969 C -146.82185,853.95219 -146.38967,852.21939 -147.8499,852.73689 z M -131.70598,849.64409 C -137.16219,851.55649 -142.30281,857.26139 -143.54052,863.14309 C -144.63924,866.16959 -144.0841,870.21939 -140.66569,869.43329 C -136.00002,867.83969 -131.1028,863.58109 -129.40939,858.39309 C -128.08472,855.31879 -126.60387,850.41189 -129.83563,849.57209 C -130.40646,849.42599 -131.04282,849.42159 -131.70598,849.64409 z M -133.70141,852.73089 C -130.91302,852.66499 -131.98667,857.08349 -132.79958,859.27959 C -133.93,861.93459 -135.79517,866.27189 -138.86701,866.22509 C -141.14664,864.88629 -139.58439,860.59009 -138.38716,857.86039 C -137.40984,855.94349 -135.79952,853.24329 -133.70141,852.73089 z M -145.98567,877.83439 C -150.68306,879.27239 -155.7071,884.86439 -155.67522,889.87249 C -155.35225,893.98389 -148.91033,893.78539 -150.56405,899.01159 C -152.29005,904.66799 -160.54696,907.14073 -161.71799,902.07109 C -161.28878,899.56209 -163.07403,899.85349 -163.90812,902.34399 C -164.56546,904.02159 -166.43987,906.23853 -164.76446,907.04573 C -160.97718,910.07963 -154.04817,906.57793 -150.00492,902.08629 C -147.09601,899.06249 -144.50011,893.35539 -147.73196,891.37349 C -149.50477,889.72499 -153.29838,888.68699 -151.68815,884.81319 C -151.07216,882.38499 -147.32546,879.46999 -146.02963,881.47009 C -145.84161,883.66469 -145.63392,884.69119 -143.41979,882.11849 C -140.85811,880.68469 -142.53414,877.49679 -144.46193,877.63789 C -144.95149,877.60269 -145.46136,877.65659 -145.98567,877.83439 z M -133.32199,882.53569 C -137.08761,884.77419 -140.94891,888.29439 -142.17534,892.72719 C -143.24263,895.81929 -145.04669,900.74959 -142.15708,902.01469 C -138.46066,902.32239 -134.6345,898.28549 -131.46296,895.79769 C -129.8944,892.33509 -132.0269,893.87019 -133.85683,895.71539 C -135.47116,897.01219 -138.8508,899.86599 -139.60353,897.42089 C -139.7106,893.94679 -138.4885,889.76039 -136.04513,886.49369 C -134.6582,884.81429 -133.39822,886.24919 -133.81213,887.75229 C -133.5983,888.55549 -129.9233,886.13859 -130.45365,884.56339 C -130.41764,882.91059 -131.65262,881.89539 -133.32199,882.53569 z M -117.97606,879.59579 C -123.74602,881.58609 -128.97745,887.75409 -130.02378,893.93109 C -131.03409,896.96899 -129.76445,900.41369 -126.50246,899.27019 C -121.92725,897.44199 -117.20794,893.24179 -115.58905,888.11119 C -114.25057,885.00289 -112.90522,879.92549 -116.45954,879.46429 C -116.92408,879.38159 -117.45265,879.42399 -117.97606,879.59579 z M -106.129,877.32619 C -108.57673,878.79229 -111.16647,880.58879 -113.31516,882.52109 C -114.96839,885.79519 -112.15638,883.22309 -110.61075,882.51199 C -109.39603,882.47759 -110.81328,884.93979 -110.85684,885.80469 C -112.7071,892.10939 -114.7476,898.39539 -116.92605,904.72199 C -118.79634,904.73929 -121.89807,908.90293 -118.30164,907.20343 C -115.68782,906.51463 -112.84977,906.76963 -110.36028,905.37343 C -106.6314,902.61559 -111.13807,904.07519 -112.99698,904.21389 C -113.65881,902.99509 -111.56908,899.25729 -111.20283,897.09729 C -110.98267,895.08829 -108.71511,896.24439 -107.43011,895.23459 C -103.30298,892.80179 -99.641745,888.58499 -98.329935,883.93239 C -97.371355,881.25019 -95.839885,876.66969 -98.674485,875.92989 C -101.41655,876.09229 -104.01777,879.48399 -106.07364,880.87919 C -105.88454,879.76749 -104.23114,877.02269 -106.129,877.32619 z M -87.100035,873.68069 C -91.780005,875.72449 -95.407115,880.94299 -96.562125,885.83429 C -97.608265,888.78179 -98.089505,893.48539 -94.552225,893.14929 C -90.930085,892.50619 -87.398025,889.06609 -84.863515,885.97959 C -83.735375,882.12689 -86.395175,885.83939 -87.910095,887.01459 C -89.504465,888.56839 -92.887195,890.96229 -93.386955,888.34429 C -94.178985,885.97389 -90.999995,884.82269 -89.504575,883.14589 C -86.802275,881.04249 -83.157685,877.38569 -84.368645,874.23919 C -84.841125,873.37789 -86.032055,873.30459 -87.100035,873.68069 z M -88.582705,876.47839 C -86.955295,876.55289 -88.289985,879.72319 -89.440965,880.68369 C -90.346055,881.58279 -93.271425,884.79479 -92.441865,882.64749 C -91.599825,880.55009 -90.691775,877.71399 -88.582705,876.47839 z M -119.97149,882.68259 C -117.33485,882.56659 -118.20728,886.72269 -118.94169,888.81719 C -120.04703,891.57639 -121.95123,896.19549 -125.16779,896.18269 C -127.4701,894.76369 -125.84934,890.50889 -124.68793,887.81799 C -123.62331,885.84999 -122.13879,883.23549 -119.97149,882.68259 z M -101.74247,880.01769 C -99.956905,880.05579 -101.34193,883.37649 -101.63677,884.73829 C -102.72015,887.79679 -104.64787,892.73549 -108.20956,892.52029 C -110.8652,892.91129 -108.37071,889.37649 -108.25736,887.75859 C -107.6485,885.58049 -107.13191,883.37039 -104.95816,882.19279 C -103.92528,881.37119 -102.86866,880.34009 -101.74247,880.01769 z"
       id="path3302"
       transform="matrix(0.7830561,0,0,0.7830561,211.40905,131.28547)" />
  </g>
</svg>
