<?xml version="1.0" encoding="UTF-8" standalone="no"?>
<!-- Created with Inkscape (http://www.inkscape.org/) -->

<svg
   xmlns:dc="http://purl.org/dc/elements/1.1/"
   xmlns:cc="http://creativecommons.org/ns#"
   xmlns:rdf="http://www.w3.org/1999/02/22-rdf-syntax-ns#"
   xmlns:svg="http://www.w3.org/2000/svg"
   xmlns="http://www.w3.org/2000/svg"
   xmlns:xlink="http://www.w3.org/1999/xlink"
   xmlns:sodipodi="http://sodipodi.sourceforge.net/DTD/sodipodi-0.dtd"
   xmlns:inkscape="http://www.inkscape.org/namespaces/inkscape"
   height="260.40628"
   id="img"
   inkscape:version="0.48.3.1 r9886"
   sodipodi:docname="logo.svg"
   sodipodi:version="0.32"
   version="1.0"
   width="242.84373"
   inkscape:output_extension="org.inkscape.output.svg.inkscape">
  <sodipodi:namedview
     bordercolor="#666666"
     borderopacity="1.0"
     grid_units="mm"
     height="297mm"
     id="base"
     inkscape:current-layer="layer1"
     inkscape:cx="132.88805"
     inkscape:cy="132.86738"
     inkscape:document-units="mm"
     inkscape:pageopacity="0.0"
     inkscape:pageshadow="2"
     inkscape:window-height="885"
     inkscape:window-width="1679"
     inkscape:window-x="236"
     inkscape:window-y="97"
     inkscape:zoom="2.332261"
     pagecolor="#ffffff"
     showgrid="true"
     units="mm"
     width="210mm"
     inkscape:window-maximized="0">
    <inkscape:grid
       empspacing="5"
       empopacity="0.4"
       opacity="0.2"
       empcolor="#0000ff"
       color="#0000ff"
       spacingy="5mm"
       spacingx="5mm"
       originy="0px"
       originx="0px"
       type="xygrid"
       id="GridFromPre046Settings" />
  </sodipodi:namedview>
  <metadata
     id="metadata3">
    <rdf:RDF>
      <cc:Work
         rdf:about="">
        <dc:title>Blazing Sun</dc:title>
        <dc:description>contact: hermann.schwarting@knackich.de</dc:description>
        <dc:subject>
          <rdf:Bag>
            <rdf:li>flames</rdf:li>
            <rdf:li>sun</rdf:li>
            <rdf:li>fire</rdf:li>
            <rdf:li>blaze</rdf:li>
          </rdf:Bag>
        </dc:subject>
        <dc:publisher>
          <cc:Agent
             rdf:about="http://www.openclipart.org/">
            <dc:title>Hermann Schwarting</dc:title>
          </cc:Agent>
        </dc:publisher>
        <dc:creator>
          <cc:Agent>
            <dc:title>Hermann Schwarting</dc:title>
          </cc:Agent>
        </dc:creator>
        <dc:rights>
          <cc:Agent>
            <dc:title>Hermann Schwarting</dc:title>
          </cc:Agent>
        </dc:rights>
        <dc:date>2006-06-09</dc:date>
        <dc:format>image/svg+xml</dc:format>
        <dc:type
           rdf:resource="http://purl.org/dc/dcmitype/StillImage" />
        <cc:license
           rdf:resource="http://web.resource.org/cc/PublicDomain" />
        <dc:language>en</dc:language>
      </cc:Work>
      <cc:License
         rdf:about="http://web.resource.org/cc/PublicDomain">
        <cc:permits
           rdf:resource="http://web.resource.org/cc/Reproduction" />
        <cc:permits
           rdf:resource="http://web.resource.org/cc/Distribution" />
        <cc:permits
           rdf:resource="http://web.resource.org/cc/DerivativeWorks" />
      </cc:License>
    </rdf:RDF>
  </metadata>
  <defs
     id="defs">
    <linearGradient
       inkscape:collect="always"
       id="linearGradient8203">
      <stop
         style="stop-color:#000000;stop-opacity:1;"
         offset="0"
         id="stop8205" />
      <stop
         style="stop-color:#000000;stop-opacity:0;"
         offset="1"
         id="stop8207" />
    </linearGradient>
    <linearGradient
       inkscape:collect="always"
       id="linearGradient7909">
      <stop
         style="stop-color:#ff0000;stop-opacity:1;"
         offset="0"
         id="stop7911" />
      <stop
         style="stop-color:#ff0000;stop-opacity:0;"
         offset="1"
         id="stop7913" />
    </linearGradient>
    <filter
       height="1.4012292"
       y="-0.20061462"
       width="1.4040438"
       x="-0.20202188"
       id="filter4936"
       inkscape:collect="always">
      <feGaussianBlur
         id="feGaussianBlur4938"
         stdDeviation="10.755303"
         inkscape:collect="always" />
    </filter>
    <filter
       id="filter"
       height="2.0"
       width="2.0"
       x="-0.5"
       y="-0.5">
      <feGaussianBlur
         stdDeviation="5.0"
         id="feGaussianBlur7232" />
    </filter>
    <filter
       inkscape:collect="always"
       id="filter7709">
      <feGaussianBlur
         inkscape:collect="always"
         stdDeviation="2.2986186"
         id="feGaussianBlur7711" />
    </filter>
    <filter
       inkscape:collect="always"
       id="filter7903">
      <feGaussianBlur
         inkscape:collect="always"
         stdDeviation="1.2371003"
         id="feGaussianBlur7905" />
    </filter>
    <radialGradient
       inkscape:collect="always"
       xlink:href="#linearGradient7909"
       id="radialGradient2467"
       gradientUnits="userSpaceOnUse"
       gradientTransform="matrix(1,0,0,1.0715633,0,-65.940928)"
       cx="121.25895"
       cy="921.43454"
       fx="121.25895"
       fy="921.43454"
       r="119.43639" />
    <radialGradient
       inkscape:collect="always"
       xlink:href="#linearGradient8203"
       id="radialGradient2470"
       gradientUnits="userSpaceOnUse"
       gradientTransform="matrix(1,0,0,0.5534711,0,412.3402)"
       cx="119.25895"
       cy="923.43451"
       fx="119.25895"
       fy="923.43451"
       r="59.186646" />
    <radialGradient
       inkscape:collect="always"
       xlink:href="#linearGradient8203"
       id="radialGradient2473"
       gradientUnits="userSpaceOnUse"
       gradientTransform="matrix(1,0,0,0.5485425,0,416.89148)"
       cx="119.25895"
       cy="923.43452"
       fx="119.25895"
       fy="923.43452"
       r="59.700959" />
    <filter
       inkscape:collect="always"
       id="filter3261">
      <feGaussianBlur
         inkscape:collect="always"
         stdDeviation="0.43151485"
         id="feGaussianBlur3263" />
    </filter>
  </defs>
  <g
     transform="translate(0,-791.9559)"
     inkscape:label="Blazing Sun"
     inkscape:groupmode="layer"
     id="layer1">
    <path
       style="fill:url(#radialGradient2473);fill-opacity:1;stroke:#ffffff;stroke-width:10;stroke-opacity:1;filter:url(#filter)"
       d="M 66.358483,920.18303 L 64.557993,922.19773 M 64.557993,922.19773 L 67.307983,921.67093 M 67.307983,921.67093 C 77.993653,919.62383 78.111523,919.60123 81.557383,917.31193 M 77.803533,909.92633 C 80.414883,909.26323 82.649663,908.18343 85.198833,906.35103 M 73.188253,899.56973 C 69.862503,902.16183 67.858463,905.31523 67.492783,908.60273 M 67.492783,908.60273 C 67.358553,909.80953 67.423113,910.61173 67.785703,911.84553 M 67.785703,911.84553 L 70.940423,909.40843 M 73.671073,900.41403 C 75.127133,899.07613 76.518383,898.32093 79.143633,897.53283 M 79.143633,897.53283 C 77.041913,904.32973 74.080173,913.32773 71.976323,919.10673 M 82.205653,896.62043 C 82.799573,896.46593 83.432773,896.30393 83.747053,896.24373 M 83.747053,896.24373 C 86.222033,895.76953 87.414263,896.80373 87.145793,899.21733 M 87.145793,899.21733 C 86.655133,903.62843 83.504803,907.40873 79.733393,908.13123 M 83.593783,928.40703 C 84.793123,928.34013 86.507803,928.13383 87.882793,927.87043 M 87.882793,927.87043 C 90.632773,927.34363 92.29216,926.25183 94.81379,923.28443 M 101.24192,900.06013 L 97.72069,910.63153 M 88.933663,904.25083 L 88.690823,905.39703 M 88.690823,905.39703 C 90.648333,904.04453 91.103623,903.75363 91.535763,903.67093 M 91.535763,903.67093 C 91.928623,903.59563 92.09728,903.80773 92.05562,904.18223 M 92.05562,904.18223 C 91.972303,904.93123 91.558433,906.23233 90.208243,910.07503 M 90.208243,910.07503 C 88.862683,913.87613 88.564423,914.82923 88.444073,915.91123 M 88.444073,915.91123 C 88.295953,917.24283 88.774143,918.12873 89.559853,917.97823 M 89.559853,917.97823 C 90.306283,917.83523 93.67131,915.23563 97.46397,911.90253 M 97.46397,911.90253 C 95.12404,919.80383 95.12404,919.80393 94.48135,921.43393 M 85.479963,925.27623 L 83.593783,928.40703 M 103.49618,915.18613 L 106.6554,913.39983 M 110.92103,900.97533 C 112.37247,899.67913 113.32232,899.08983 114.38303,898.88663 M 114.38303,898.88663 C 115.24732,898.72113 115.721,898.95613 116.32168,899.77783 M 104.83889,901.04093 L 104.59606,902.18703 M 104.59606,902.18703 C 106.84709,900.61543 107.09206,900.48703 107.56348,900.39673 M 107.56348,900.39673 C 108.07419,900.29893 108.27751,900.54503 108.2127,901.12763 M 108.2127,901.12763 C 108.1479,901.71023 107.53749,903.74143 106.86703,905.62113 M 106.86703,905.62113 L 103.49618,915.18613 M 121.08765,897.64293 C 118.35118,900.12213 116.10194,904.78863 115.64368,908.90843 M 115.64368,908.90843 C 115.36132,911.44693 116.51651,912.81403 118.59865,912.41513 M 118.59865,912.41513 C 119.69864,912.20433 120.84493,911.57753 122.76316,910.23253 M 122.76316,910.23253 C 124.85704,908.69103 126.26919,907.40233 127.08742,906.26813 M 125.5687,895.72563 C 127.14012,895.42453 127.94173,896.85933 127.66401,899.35623 M 127.66401,899.35623 C 127.46959,901.10403 126.6789,903.37333 125.46995,905.60053 M 125.46995,905.60053 C 124.10611,908.18323 122.54833,909.74423 121.05548,910.03023 M 96.27925,944.58923 L 94.06929,949.24823 M 94.06929,949.24823 C 95.22673,950.94073 96.97132,951.50243 99.52488,951.01323 M 99.52488,951.01323 C 105.53557,949.86173 112.00702,943.53103 112.59488,938.24613 M 111.61986,923.85243 C 113.26985,923.53633 113.77582,924.17253 113.91172,926.75303 M 113.91172,926.75303 L 116.72212,924.30043 M 113.60527,921.55793 C 109.55885,922.33313 104.43476,927.95763 103.9765,932.07753 M 103.9765,932.07753 C 103.76821,933.95013 104.44045,935.16533 106.51072,936.60143 M 106.51072,936.60143 C 108.93217,938.33683 109.51434,939.32493 109.30142,941.23923 M 109.30142,941.23923 C 108.94037,944.48513 105.67455,947.92093 102.25672,948.57573 M 124.4556,928.72443 C 125.39846,928.54373 125.82122,929.23663 125.81398,931.02993 M 125.81398,931.02993 L 128.24993,929.17863 M 123.7417,927.88373 C 120.57772,930.40403 119.87972,931.14863 118.82566,933.02043 M 118.82566,933.02043 C 117.4757,935.47833 116.25726,939.17353 115.97027,941.75363 M 115.97027,941.75363 C 115.7018,944.16723 116.60513,945.37893 118.41227,945.03273 M 118.41227,945.03273 C 120.29796,944.67143 123.70455,942.38973 127.59429,938.87513 M 134.80223,927.59753 C 132.06576,930.07663 129.81652,934.74323 129.35826,938.86303 M 129.35826,938.86303 C 129.0759,941.40143 130.23109,942.76853 132.31323,942.36963 M 132.31323,942.36963 C 133.41322,942.15893 134.55951,941.53203 136.47774,940.18713 M 136.47774,940.18713 C 138.57161,938.64563 139.98377,937.35693 140.802,936.22273 M 139.28328,925.68013 C 140.85469,925.37913 141.65631,926.81393 141.37858,929.31073 M 141.37858,929.31073 C 141.18417,931.05853 140.39348,933.32783 139.18453,935.55513 M 139.18453,935.55513 C 137.82069,938.13783 136.2629,939.69883 134.77006,939.98483 M 141.14563,948.82313 L 139.81894,950.38053 M 139.81894,950.38053 C 140.95359,950.20383 145.30503,949.45173 146.4836,949.22593 M 146.4836,949.22593 C 146.79789,949.16573 147.34788,949.06033 148.33465,948.83063 M 148.33465,948.83063 L 149.66823,947.55693 M 148.16766,938.92503 C 148.93486,938.94103 149.36237,938.89983 150.03023,938.77193 M 150.03023,938.77193 C 151.75879,938.44073 152.7433,937.88563 154.46285,936.25293 M 146.26344,925.97203 L 145.90738,927.09913 M 145.90738,927.09913 C 146.44123,926.79323 146.93581,926.49483 147.10221,926.38153 M 147.10221,926.38153 C 148.30166,925.62233 148.54663,925.49393 148.86092,925.43373 M 148.86092,925.43373 C 149.33235,925.34333 149.56106,925.70683 149.47774,926.45583 M 149.47774,926.45583 C 149.3111,927.95403 145.75047,939.22523 142.56917,948.46893 M 151.85315,927.22263 C 155.39158,924.10113 156.64884,923.16793 157.67026,922.97223 M 157.67026,922.97223 C 158.45597,922.82173 158.86485,923.63933 158.7121,925.01263 M 158.7121,925.01263 C 158.50381,926.88523 157.69459,929.32103 156.45787,931.79793 M 156.45787,931.79793 C 155.12406,934.45643 153.64948,935.96073 152.03878,936.26933 M 165.51837,929.65493 C 167.41582,928.15103 168.6916,927.05143 171.21312,924.77633 M 166.2591,922.30423 C 164.55331,924.50453 162.70843,929.33793 162.3335,932.70873 M 162.3335,932.70873 C 162.0604,935.16393 163.10699,936.47033 165.11055,936.08653 M 165.11055,936.08653 C 167.4284,935.64253 170.49067,933.34533 173.95991,929.46323 M 170.84662,919.42983 C 171.51447,919.30183 171.86792,919.92653 171.75683,920.92523 M 171.75683,920.92523 C 171.52539,923.00593 170.3258,924.45753 165.80287,928.13423"
       id="path7250" />
    <path
       style="fill:url(#radialGradient2470);fill-opacity:1;stroke:#ff0000;stroke-width:10;stroke-opacity:0.87030717;filter:url(#filter7709)"
       d="M 80.271213,919.68141 L 80.391443,919.29191 M 80.391443,919.29191 C 78.163673,919.96301 77.216183,920.18531 73.754423,920.88921 M 73.754423,920.88921 C 73.932453,920.32561 74.110483,919.76201 74.283893,919.24011 M 74.283893,919.24011 C 74.519723,918.50261 74.755553,917.76501 75.067703,916.68701 M 75.067703,916.68701 C 75.828373,914.34201 75.895433,914.08481 76.517363,912.29581 M 83.912663,908.72051 C 86.921743,906.55571 89.013623,903.30401 89.356153,900.22461 M 89.356153,900.22461 C 89.670913,897.39481 87.623663,896.44301 83.105833,897.30851 M 83.105833,897.30851 C 82.712973,897.38381 82.280833,897.46661 81.372633,897.68131 M 81.372633,897.68131 L 81.724073,896.59581 M 81.724073,896.59581 L 78.934553,898.51491 M 78.934553,898.51491 C 75.793953,899.44241 73.961293,900.36371 71.902073,901.93921 M 69.654243,911.77791 C 69.344823,910.41171 69.301033,909.76851 69.412123,908.76971 M 69.412123,908.76971 C 69.657453,906.56421 70.797083,904.26881 72.384893,902.78351 M 70.690143,921.47621 L 65.072303,922.55251 M 78.447223,910.50071 C 78.015083,910.58351 77.705423,910.60211 77.090743,910.59761 M 77.090743,910.59761 L 80.919483,898.98991 M 93.52762,925.65391 C 96.09316,922.63731 96.30122,922.14941 98.43072,915.10291 M 98.43072,915.10291 C 100.55095,908.13961 101.64455,904.87561 103.49405,900.00051 M 103.49405,900.00051 C 102.95094,900.38961 102.49103,900.72211 102.32463,900.83541 M 102.32463,900.83541 L 100.87094,901.80631 M 100.87094,901.80631 C 100.66062,901.96881 100.33245,902.15381 99.95574,902.42961 M 96.43451,913.00101 C 92.21898,916.33371 92.00866,916.49611 91.340813,916.62411 M 91.340813,916.62411 C 90.830093,916.72191 90.541333,916.20711 90.624653,915.45801 M 90.624653,915.45801 C 90.726483,914.54251 91.292983,912.56051 92.36805,909.46291 M 92.36805,909.46291 C 93.80844,905.15491 94.61765,902.71921 94.65931,902.34471 M 94.65931,902.34471 C 94.69171,902.05341 94.51843,901.88291 94.28272,901.92811 M 94.28272,901.92811 C 93.85058,902.01091 91.178913,903.90741 87.647493,906.62031 M 93.19518,923.80341 C 92.33054,926.04611 90.985443,927.07761 88.431893,927.56681 M 88.431893,927.56681 C 87.292613,927.78511 86.446833,927.78421 84.193793,927.64571 M 105.36923,915.76931 L 109.63486,903.34481 M 115.0355,902.14731 L 116.65381,897.96821 M 116.65381,897.96821 C 115.93515,897.86151 115.63013,897.83851 115.23727,897.91371 M 115.23727,897.91371 C 114.53013,898.04921 113.66347,898.58181 112.51482,899.57561 M 112.51482,899.57561 L 109.99793,901.80911 M 109.99793,901.80911 C 110.07424,901.46861 110.17596,901.24551 110.18984,901.12071 M 110.18984,901.12071 C 110.65688,899.68721 110.72394,899.43001 110.74708,899.22191 M 110.74708,899.22191 C 110.77486,898.97221 110.56229,898.80931 110.28729,898.86201 M 110.28729,898.86201 C 109.77657,898.95981 106.1204,901.41161 103.55272,903.41041 M 126.54293,895.74781 C 124.9715,896.04891 122.32299,897.73741 119.80147,900.01241 M 125.80125,908.63761 C 127.62263,906.08941 129.33339,901.77041 129.65278,898.89901 M 129.65278,898.89901 C 129.90273,896.65181 128.62506,895.34891 126.54293,895.74781 M 119.76931,912.39971 C 118.1586,912.70831 117.30844,911.36421 117.57228,908.99221 M 117.57228,908.99221 C 118.10922,904.16501 121.53253,898.62191 124.28252,898.09511 M 111.3087,940.61561 C 111.49849,938.90941 110.96711,938.15591 108.32846,936.29921 M 108.32846,936.29921 C 105.72445,934.47661 105.33172,933.85951 105.53076,932.07011 M 105.53076,932.07011 C 105.83163,929.36511 108.01584,926.66601 110.33369,926.22191 M 115.43595,926.66991 C 115.45482,924.42631 114.40122,923.52851 112.31909,923.92741 M 100.97054,950.94521 C 99.28125,951.26881 97.64064,950.80931 96.71879,949.76411 M 96.71879,949.76411 C 96.00027,948.96501 95.78319,948.15131 95.67257,946.38051 M 95.67257,946.38051 L 94.99308,946.95871 M 126.53481,939.89791 C 123.25524,942.76621 121.04349,944.33031 119.78636,944.57111 M 119.78636,944.57111 C 118.37207,944.84201 117.67668,943.83491 117.89887,941.83741 M 117.89887,941.83741 C 118.12105,939.83991 118.88872,937.08631 119.8527,934.98741 M 119.8527,934.98741 C 120.88374,932.63141 122.03015,931.31211 123.16943,931.09391 M 126.96375,931.54811 C 127.02618,931.33251 127.04933,931.12441 127.05395,931.08281 M 127.05395,931.08281 C 127.25299,929.29341 126.51369,928.33541 125.13869,928.59881 M 125.13869,928.59881 C 124.43155,928.73421 123.9809,928.98351 122.45552,930.25321 M 126.30812,941.24461 L 126.53481,939.89791 M 140.2575,925.70241 C 138.68608,926.00341 136.03756,927.69191 133.51605,929.96701 M 139.51582,938.59221 C 141.33719,936.04401 143.04797,931.72491 143.36736,928.85351 M 143.36736,928.85351 C 143.61731,926.60641 142.33963,925.30351 140.2575,925.70241 M 133.48388,942.35431 C 131.87317,942.66291 131.02301,941.31881 131.28686,938.94681 M 131.28686,938.94681 C 131.8238,934.11951 135.24711,928.57651 137.9971,928.04961 M 148.38205,949.92641 L 144.00984,950.51961 M 144.00984,950.51961 L 146.88149,941.29451 M 153.17668,938.62241 C 155.36077,936.61561 156.19051,935.72351 156.78454,934.87661 M 156.78454,934.87661 C 158.39561,932.49091 160.14803,927.79731 160.44891,925.09241 M 160.44891,925.09241 C 160.67109,923.09501 159.99421,921.92131 158.69779,922.16971 M 158.69779,922.16971 C 157.75494,922.35031 156.34979,923.23041 154.60022,924.78741 M 154.60022,924.78741 L 151.1057,927.85981 M 151.1057,927.85981 C 151.27447,927.37951 151.40396,926.90671 151.5103,926.64191 M 151.5103,926.64191 C 152.03977,924.99281 152.33341,924.08131 152.35192,923.91491 M 152.35192,923.91491 C 152.37969,923.66521 152.1371,923.42661 151.8621,923.47921 M 151.8621,923.47921 C 151.46924,923.55451 148.08807,925.95351 144.97726,928.34151 M 141.28299,950.83841 L 139.85945,951.19261 M 147.86873,938.29521 C 148.72886,935.40171 149.49416,933.01511 150.08605,931.15041 M 150.08605,931.15041 C 150.14848,930.93481 150.32651,930.37131 150.56697,929.59211 M 150.7526,938.63881 C 149.77046,938.82691 148.74678,938.69721 147.86873,938.29521 M 172.80796,930.62591 C 169.56067,933.89531 167.54534,935.42171 166.0525,935.70771 M 166.0525,935.70771 C 165.07036,935.89581 164.32406,935.34651 164.16941,934.31721 M 164.16941,934.31721 C 164.08632,933.68141 164.09796,933.23121 164.23219,932.02441 M 169.92694,927.14581 C 172.23814,925.03321 173.21589,923.50191 173.42419,921.62921 M 173.42419,921.62921 C 173.5862,920.17271 172.81912,919.46441 171.44413,919.72781 M 171.44413,919.72781 C 170.57984,919.89341 169.92813,920.22191 168.96439,920.93601 M 168.96439,920.93601 C 167.3697,922.13751 165.90901,923.51701 164.97292,924.67371 M 172.67373,931.83271 L 172.80796,930.62591 M 164.51669,930.50371 C 165.67983,925.92301 167.87115,922.12291 169.56044,921.79931"
       id="path7252" />
    <path
       style="fill:#ff2a2a;fill-opacity:1;fill-rule:nonzero;stroke:url(#radialGradient2467);stroke-width:2.5;stroke-linecap:round;stroke-linejoin:round;marker:none;marker-start:none;marker-mid:none;marker-end:none;stroke-miterlimit:4;stroke-dasharray:none;stroke-dashoffset:0;stroke-opacity:0.87030717;visibility:visible;display:inline;overflow:visible;filter:url(#filter7903)"
       id="path5179"
       d="M 113.73066,794.70088 C 123.93258,807.33398 104.27799,810.46624 111.75355,825.54401 C 115.80569,833.71701 107.01259,839.40339 102.8717,839.35348 C 98.42398,839.30355 91.700933,836.87764 97.03157,825.54402 C 90.341363,834.672 90.647623,852.35149 104.45339,856.96509 C 100.25434,857.8525 96.19672,859.12286 92.316893,860.73682 C 92.257213,860.5756 92.225263,860.41205 92.164803,860.25015 C 88.767493,851.15196 75.467893,848.56281 58.766613,856.35673 C 69.135323,852.7925 76.478893,859.784 78.598693,868.34115 C 78.600993,868.35047 78.596393,868.36226 78.598693,868.37156 C 72.574263,872.69685 67.260263,877.97551 62.903373,883.97563 C 59.477693,880.96535 54.908553,876.53635 52.166063,872.2954 C 44.230233,860.02355 38.271873,857.46966 28.653483,857.29968 C 29.712503,857.48328 38.184863,859.1411 37.991603,864.5694 C 37.874563,867.85712 31.834953,870.97718 26.585123,870.92661 C 7.170673,870.7396 3.169063,851.51496 3.072553,851.03372 C 3.090393,851.95138 3.641963,866.77131 19.437053,875.42837 C 33.507163,883.14843 44.059853,886.67687 43.953393,890.05909 C 43.841453,893.6159 40.249203,906.23554 22.083363,892.8879 C 34.254913,905.84349 45.565623,901.42621 55.390293,897.14632 C 52.612523,903.58164 50.793593,910.53014 50.097693,917.79965 C 40.367643,920.84569 38.582013,927.85791 34.371953,939.18301 C 39.219893,931.30684 45.257193,928.33256 49.945603,929.14531 C 50.341253,935.00271 51.461323,940.65988 53.230673,946.02691 C 51.977763,945.56182 50.703603,945.08512 49.458923,944.6277 C 45.264433,943.08627 41.854433,945.90387 38.508703,949.73782 C 42.428613,946.03836 47.928743,947.41003 48.820163,952.62746 C 49.795873,958.33822 43.205013,957.43012 35.558223,955.54751 C 27.968713,953.67903 24.728653,958.88404 21.018753,965.95024 C 26.017533,960.24939 30.427813,958.02638 33.246513,962.9085 C 35.973863,967.63243 30.612923,972.42909 22.205043,972.42909 C 16.154283,972.42909 13.587203,977.9489 12.258573,989.7366 C 16.880003,976.835 26.666093,986.9973 33.824433,979.3643 C 42.307323,970.31884 51.311633,969.04489 54.204023,972.85499 C 57.096413,976.665 57.769913,982.6972 46.630113,984.2919 C 54.840643,985.1547 64.656413,979.1004 67.922223,971.02992 C 71.176193,974.5785 74.793923,977.8054 78.720363,980.6114 C 69.954433,990.2909 77.522103,1000.1483 86.993863,1011.2417 C 80.780443,999.7326 83.552013,990.2424 89.001413,986.6644 C 96.18782,990.1086 104.06351,992.3792 112.36189,993.1433 C 110.1626,997.1661 107.80622,1003.0538 106.2176,1011.4545 C 104.94452,1018.1866 107.67487,1022.5257 113.73067,1028.7012 C 113.43308,1028.0378 108.76501,1017.3687 114.03484,1014.5267 C 118.48851,1012.1248 121.81262,1020.4946 123.22086,1025.9332 C 124.67374,1031.5442 126.46842,1040.7632 117.98909,1048.1682 C 119.03571,1047.6565 130.22879,1041.7804 130.46018,1024.2603 C 130.56115,1016.731 124.68029,1006.5658 131.82896,1003.6677 C 138.73924,1000.8664 142.13936,1007.8391 138.52075,1022.3135 C 144.23103,1010.1792 146.0629,1003.3334 133.44107,991.8658 C 136.03627,991.3029 138.56786,990.5828 141.04539,989.7366 C 147.19187,996.3784 158.40454,997.0472 170.70227,993.2041 C 162.46096,993.4539 156.24216,989.5789 152.93856,984.3527 C 160.13989,980.2345 166.52215,974.8739 171.79729,968.53571 C 174.07291,972.02259 175.89179,977.4923 174.74776,985.6302 C 173.31661,995.8107 183.50909,996.5279 189.89558,995.7896 C 181.91645,994.9064 178.48575,986.2622 185.66757,983.3794 C 192.62668,980.5859 186.77969,999.3286 207.38552,998.7705 C 196.65757,995.7794 194.66581,991.8247 197.46949,986.9686 C 200.11904,982.3794 205.62925,986.3752 209.97098,989.9495 C 216.17535,995.0571 218.95147,993.3818 231.47602,992.7479 C 212.2871,989.1058 217.33021,976.1679 207.02051,974.7104 C 196.42843,973.21299 190.2576,967.27807 192.3898,958.77176 C 194.42337,950.65894 203.63051,950.36106 210.48808,956.70338 C 204.49809,950.41339 196.29301,942.78074 184.66381,944.81021 C 186.03489,940.37574 186.98174,935.76657 187.43177,931.00076 C 197.59603,930.19309 205.24021,921.73823 211.85686,915.06211 C 202.59259,921.17888 193.67262,922.73776 187.58386,919.92887 C 187.13906,913.05615 185.70063,906.45916 183.38628,900.2793 C 188.41435,897.09633 196.2167,893.17089 203.18793,894.04376 C 214.53978,895.46513 219.68962,885.89115 223.62836,879.35221 C 218.4584,884.79834 208.76457,888.71971 207.87219,880.41681 C 207.02787,872.56122 225.01091,854.73546 239.08033,864.23482 C 229.67401,857.23216 218.25627,855.50577 207.75053,866.3336 C 201.06479,873.22432 191.13777,878.04969 186.36716,873.23833 C 181.7422,868.57383 183.13793,857.94452 196.86113,859.12471 C 186.19591,857.10067 174.02098,860.78633 171.82771,880.3864 C 168.70211,876.62617 165.18007,873.21982 161.33373,870.1966 C 168.74851,860.51197 159.35994,852.44614 150.38351,837.80219 C 155.88784,850.84868 153.2467,859.15296 147.12886,861.55809 C 147.12036,861.55425 147.10692,861.56192 147.09843,861.55809 C 140.76696,858.69711 133.95364,856.73106 126.77969,855.90048 C 129.06046,853.7933 132.81492,851.15267 138.15576,849.78661 C 145.60639,847.8809 143.84774,838.75836 140.58913,833.81753 C 139.91092,838.69432 140.59307,846.3349 132.61981,844.25066 C 124.64654,842.1664 131.91138,833.47092 135.69195,830.74538 C 139.55143,827.96296 135.73629,819.15083 130.42975,815.2934 C 139.58342,823.19024 133.0407,830.56682 124.65048,829.22452 C 116.44704,827.91209 119.94438,818.36519 124.34629,812.95127 C 128.99052,807.2393 121.21,801.61106 113.73066,794.70088 z M 239.20201,864.32606 C 239.28292,864.38175 239.3647,864.45106 239.44534,864.50858 C 239.3633,864.44597 239.28438,864.38787 239.20201,864.32606 z" />
    <path
       style="fill:#ffff00;fill-opacity:1;fill-rule:evenodd;stroke:none;stroke-width:2.5;stroke-linecap:round;stroke-linejoin:round;marker:none;marker-start:none;marker-mid:none;marker-end:none;stroke-miterlimit:4;stroke-dasharray:none;stroke-dashoffset:0;stroke-opacity:1;visibility:visible;display:inline;overflow:visible;filter:url(#filter4936)"
       d="M 114.9375,863.71875 C 81.333466,868.54904 57.897026,904.71614 63.59375,937.5625 C 64.53506,954.56481 79.511083,967.0057 94.46875,973.0625 C 113.05682,983.43899 137.22033,982.24823 154.34375,969.625 C 170.02302,960.32634 180.77192,942.4225 179,923.9375 C 179.74356,902.89822 169.18595,880.26413 148.96875,871.65625 C 138.53945,866.14137 126.70856,863.36997 114.9375,863.71875 z"
       id="path3160"
       transform="matrix(-0.5073788,0.8306526,-0.8306526,-0.5073788,948.76727,1289.7667)" />
    <path
       style="font-size:40px;font-style:normal;font-weight:normal;line-height:80.00000119000000609%;fill:#c83737;fill-opacity:1;stroke:#890000;stroke-width:1.41732283000000003;stroke-linecap:butt;stroke-linejoin:round;stroke-opacity:1;filter:url(#filter3261);font-family:Bitstream Vera Sans;stroke-miterlimit:4;stroke-dasharray:none;opacity:0.9"
       d="M 82.538673,901.33037 C 79.101843,904.10687 75.020593,904.17357 71.743013,907.47447 C 67.864593,910.62367 65.625493,916.27377 67.224363,919.91877 C 68.926813,918.39607 71.991963,917.23267 70.709523,915.05117 C 70.344763,911.29827 73.681793,906.69327 77.490873,905.81297 C 79.064553,905.78787 76.395543,910.24647 76.214133,912.04957 C 74.689773,916.75357 73.109193,921.45487 71.427943,926.14537 C 68.992303,926.98287 66.015013,926.06667 64.256003,929.10017 C 62.00598,931.43787 67.639973,928.95417 68.901753,929.14297 C 73.051253,928.13427 77.811303,928.09257 81.583233,924.77257 C 82.300133,922.59307 77.969543,925.45707 76.562463,925.13727 C 73.929673,926.15297 76.796463,921.98027 76.801063,920.49137 C 76.981993,917.87817 78.725293,917.24957 80.733473,916.59887 C 85.559153,914.76027 91.049433,909.41637 90.701973,904.09377 C 90.100243,900.72787 85.810153,901.54557 82.921253,902.21167 C 82.915283,901.53827 84.094763,899.90307 82.538673,901.33037 z M 83.402963,904.09207 C 86.163143,903.09707 87.150683,906.06077 86.019933,908.64987 C 85.151873,912.00587 81.661873,915.33947 78.562733,915.20117 C 79.754273,911.60017 80.945813,907.99917 82.137363,904.39817 C 82.559343,904.29457 82.981353,904.19107 83.402963,904.09207 z M 104.3286,904.72877 C 102.50736,906.14407 99.96777,906.92817 99.86599,909.56267 C 98.74916,912.36227 98.22684,915.53587 96.74837,918.10807 C 95.28204,918.93197 93.56318,921.34817 92.08013,921.13887 C 91.976783,917.99807 93.96807,914.46987 94.80771,911.15547 C 94.94764,909.91047 97.21931,906.32827 95.10657,906.62267 C 92.75889,908.05087 90.226263,909.83777 88.230943,911.72627 C 86.912443,914.98027 89.518813,912.18267 91.045513,911.53707 C 91.919203,911.75947 90.421063,914.14937 90.385963,915.03617 C 89.621183,918.40777 86.752773,922.54947 88.091393,925.40307 C 89.627353,926.89297 92.25117,923.49837 94.05263,922.41337 C 96.83404,919.45737 96.36079,921.17427 95.4376,923.90027 C 94.41195,926.57517 94.0329,930.95317 90.706223,931.87037 C 88.647763,932.74767 86.502903,931.97597 84.829713,932.58257 C 82.696083,935.39137 82.103633,937.18847 85.673843,936.00647 C 89.182423,935.99797 92.85814,933.72467 95.34669,930.22457 C 99.08481,925.77017 99.36436,920.15677 101.30637,915.15727 C 102.51196,911.45317 103.74685,907.74777 105.24221,904.07647 C 104.93767,904.29387 104.63314,904.51127 104.3286,904.72877 z M 111.06634,903.56527 C 108.71466,904.94697 106.18329,906.56297 104.12034,908.49137 C 102.80078,911.83387 105.53291,908.87697 107.02698,908.28457 C 108.32058,908.19257 106.55457,910.82337 106.68881,911.59477 C 105.32521,915.53297 103.92875,919.46847 102.52185,923.40217 C 104.49991,922.13027 107.28169,921.58417 107.40624,918.74787 C 108.79099,915.30297 109.5212,911.48667 111.29481,908.26237 C 112.96007,906.59977 115.33258,906.04327 116.1025,907.97777 C 116.3009,906.17137 119.42186,902.32577 116.89418,902.48057 C 114.98778,902.47487 113.26567,904.40587 111.69242,905.76807 C 112.09439,904.78057 112.52657,903.04777 111.06634,903.56527 z M 127.21026,900.47247 C 121.75405,902.38487 116.61343,908.08977 115.37572,913.97147 C 114.277,916.99797 114.83214,921.04777 118.25055,920.26167 C 122.91622,918.66807 127.81344,914.40947 129.50685,909.22147 C 130.83152,906.14717 132.31237,901.24027 129.08061,900.40047 C 128.50978,900.25437 127.87342,900.24997 127.21026,900.47247 z M 125.21483,903.55927 C 128.00322,903.49337 126.92957,907.91187 126.11666,910.10797 C 124.98624,912.76297 123.12107,917.10027 120.04923,917.05347 C 117.7696,915.71467 119.33185,911.41847 120.52908,908.68877 C 121.5064,906.77187 123.11672,904.07167 125.21483,903.55927 z M 112.93057,928.66277 C 108.23318,930.10077 103.20914,935.69277 103.24102,940.70087 C 103.56399,944.81227 110.00591,944.61377 108.35219,949.83997 C 106.62619,955.49637 98.36928,957.96911 97.19825,952.89947 C 97.62746,950.39047 95.84221,950.68187 95.00812,953.17237 C 94.35078,954.84997 92.47637,957.06691 94.15178,957.87411 C 97.93906,960.90801 104.86807,957.40631 108.91132,952.91467 C 111.82023,949.89087 114.41613,944.18377 111.18428,942.20187 C 109.41147,940.55337 105.61786,939.51537 107.22809,935.64157 C 107.84408,933.21337 111.59078,930.29837 112.88661,932.29847 C 113.07463,934.49307 113.28232,935.51957 115.49645,932.94687 C 118.05813,931.51307 116.3821,928.32517 114.45431,928.46627 C 113.96475,928.43107 113.45488,928.48497 112.93057,928.66277 z M 125.59425,933.36407 C 121.82863,935.60257 117.96733,939.12277 116.7409,943.55557 C 115.67361,946.64767 113.86955,951.57797 116.75916,952.84307 C 120.45558,953.15077 124.28174,949.11387 127.45328,946.62607 C 129.02184,943.16347 126.88934,944.69857 125.05941,946.54377 C 123.44508,947.84057 120.06544,950.69437 119.31271,948.24927 C 119.20564,944.77517 120.42774,940.58877 122.87111,937.32207 C 124.25804,935.64267 125.51802,937.07757 125.10411,938.58067 C 125.31794,939.38387 128.99294,936.96697 128.46259,935.39177 C 128.4986,933.73897 127.26362,932.72377 125.59425,933.36407 z M 140.94018,930.42417 C 135.17022,932.41447 129.93879,938.58247 128.89246,944.75947 C 127.88215,947.79737 129.15179,951.24207 132.41378,950.09857 C 136.98899,948.27037 141.7083,944.07017 143.32719,938.93957 C 144.66567,935.83127 146.01102,930.75387 142.4567,930.29267 C 141.99216,930.20997 141.46359,930.25237 140.94018,930.42417 z M 152.78724,928.15457 C 150.33951,929.62067 147.74977,931.41717 145.60108,933.34947 C 143.94785,936.62357 146.75986,934.05147 148.30549,933.34037 C 149.52021,933.30597 148.10296,935.76817 148.0594,936.63307 C 146.20914,942.93777 144.16864,949.22377 141.99019,955.55037 C 140.1199,955.56767 137.01817,959.73131 140.6146,958.03181 C 143.22842,957.34301 146.06647,957.59801 148.55596,956.20181 C 152.28484,953.44397 147.77817,954.90357 145.91926,955.04227 C 145.25743,953.82347 147.34716,950.08567 147.71341,947.92567 C 147.93357,945.91667 150.20113,947.07277 151.48613,946.06297 C 155.61326,943.63017 159.27449,939.41337 160.5863,934.76077 C 161.54488,932.07857 163.07635,927.49807 160.24175,926.75827 C 157.49969,926.92067 154.89847,930.31237 152.8426,931.70757 C 153.0317,930.59587 154.6851,927.85107 152.78724,928.15457 z M 171.8162,924.50907 C 167.13623,926.55287 163.50912,931.77137 162.35411,936.66267 C 161.30797,939.61017 160.82673,944.31377 164.36401,943.97767 C 167.98615,943.33457 171.51821,939.89447 174.05272,936.80797 C 175.18086,932.95527 172.52106,936.66777 171.00614,937.84297 C 169.41177,939.39677 166.02904,941.79067 165.52928,939.17267 C 164.73725,936.80227 167.91624,935.65107 169.41166,933.97427 C 172.11396,931.87087 175.75855,928.21407 174.54759,925.06757 C 174.07511,924.20627 172.88418,924.13297 171.8162,924.50907 z M 170.33353,927.30677 C 171.96094,927.38127 170.62625,930.55157 169.47527,931.51207 C 168.57018,932.41117 165.64481,935.62317 166.47437,933.47587 C 167.31641,931.37847 168.22446,928.54237 170.33353,927.30677 z M 138.94475,933.51097 C 141.58139,933.39497 140.70896,937.55107 139.97455,939.64557 C 138.86921,942.40477 136.96501,947.02387 133.74845,947.01107 C 131.44614,945.59207 133.0669,941.33727 134.22831,938.64637 C 135.29293,936.67837 136.77745,934.06387 138.94475,933.51097 z M 157.17377,930.84607 C 158.95933,930.88417 157.57431,934.20487 157.27947,935.56667 C 156.19609,938.62517 154.26837,943.56387 150.70668,943.34867 C 148.05104,943.73967 150.54553,940.20487 150.65888,938.58697 C 151.26774,936.40887 151.78433,934.19877 153.95808,933.02117 C 154.99096,932.19957 156.04758,931.16847 157.17377,930.84607 z"
       id="path7242" />
  </g>
</svg>
